#!OML:ASF E:\motion texture\Top Level 1\Subject 1\Session 1\male.ASF
:FULLY-SPECIFIED
:DEGREES
664
root -34.844 17.9103 4.99619 551.175 -83.8142 -545.895
lowerback 0.00192739 -0.195481 -0.658522
upperback -0.462806 -0.284746 3.11384
thorax -0.456662 -0.148036 3.56956
lowerneck -12.046 -5.22578 -8.14945
upperneck 23.1748 -7.993 7.76534
head 9.98107 -3.76589 3.06597
rclavicle 1.0138e-014 0
rhumerus -27.3323 -49.729 -61.1371
rradius 23.1608
rwrist -9.64632
rhand -15.1387 -57.0887
rfingers 7.12502
rthumb 11.0309 -86.7788
lclavicle 1.0138e-014 0
lhumerus -22.5823 14.3284 77.8398
lradius 33.5652
lwrist -13.572
lhand -15.8266 24.3972
lfingers 7.12502
lthumb 10.3674 54.1217
rfemur -33.9498 -5.63246 15.5291
rtibia 50.7729
rfoot -0.39926 -10.3081
rtoes 8.77817
lfemur -6.8243 -6.49536 -19.68
ltibia 19.0012
lfoot -12.1104 4.43563
ltoes -5.95405
665
root -34.9762 17.9059 4.97251 552.136 -83.9283 -546.883
lowerback -0.0865944 -0.181215 -0.672181
upperback -0.552173 -0.264957 3.11956
thorax -0.499905 -0.13688 3.58308
lowerneck -11.9183 -5.11246 -8.06546
upperneck 22.2891 -7.78337 7.91868
head 9.62625 -3.64022 3.13058
rclavicle -1.39149e-014 2.46493e-014
rhumerus -24.7528 -48.509 -63.709
rradius 24.0436
rwrist -12.1266
rhand -15.2564 -58.0782
rfingers 7.12502
rthumb 10.9175 -87.7744
lclavicle -1.39149e-014 2.46493e-014
lhumerus -22.0652 13.6533 78.253
lradius 33.7165
lwrist -13.5344
lhand -15.7586 24.3797
lfingers 7.12502
lthumb 10.4331 54.1009
rfemur -34.0245 -5.55667 15.242
rtibia 49.0262
rfoot -0.838416 -10.3749
rtoes 8.54601
lfemur -6.21474 -6.45906 -19.7977
ltibia 18.8283
lfoot -12.3325 4.33399
ltoes -6.33413
666
root -35.1086 17.9009 4.94745 553.064 -84.0373 -547.833
lowerback -0.177536 -0.163907 -0.68109
upperback -0.644482 -0.241152 3.12434
thorax -0.545121 -0.123717 3.59296
lowerneck -11.7634 -4.99686 -7.98288
upperneck 21.3603 -7.57399 8.08821
head 9.25707 -3.51518 3.1997
rclavicle -1.68967e-015 1.03368e-014
rhumerus -22.2319 -47.1306 -66.1794
rradius 25.0247
rwrist -14.6555
rhand -15.3706 -59.0619
rfingers 7.12502
rthumb 10.8073 -88.7639
lclavicle -1.68967e-015 1.03368e-014
lhumerus -21.5788 12.9904 78.6456
lradius 33.8651
lwrist -13.4936
lhand -15.6872 24.3586
lfingers 7.12502
lthumb 10.5019 54.0763
rfemur -34.0553 -5.44842 14.9509
rtibia 47.2471
rfoot -1.19855 -10.4135
rtoes 8.28404
lfemur -5.62512 -6.43005 -19.8989
ltibia 18.6875
lfoot -12.5504 4.23904
ltoes -6.73752
667
root -35.2412 17.8953 4.92102 553.954 -84.1409 -548.744
lowerback -0.26916 -0.144104 -0.685509
upperback -0.736241 -0.214109 3.12765
thorax -0.589647 -0.108998 3.59879
lowerneck -11.5937 -4.87978 -7.89936
upperneck 20.3923 -7.36502 8.27245
head 8.87743 -3.39072 3.27206
rclavicle -6.16232e-015 1.98785e-014
rhumerus -19.7818 -45.6094 -68.5277
rradius 26.1078
rwrist -17.2101
rhand -15.4631 -60.0078
rfingers 7.12502
rthumb 10.718 -89.7144
lclavicle -6.16232e-015 1.98785e-014
lhumerus -21.1176 12.346 79.0175
lradius 34.0099
lwrist -13.4507
lhand -15.6125 24.332
lfingers 7.12502
lthumb 10.574 54.046
rfemur -34.0427 -5.30707 14.6561
rtibia 45.45
rfoot -1.48556 -10.4322
rtoes 7.99063
lfemur -5.05516 -6.40978 -19.9853
ltibia 18.5819
lfoot -12.7625 4.15164
ltoes -7.16447
668
root -35.3742 17.8891 4.89316 554.796 -84.2387 -549.607
lowerback -0.360154 -0.120906 -0.684759
upperback -0.829403 -0.182589 3.12949
thorax -0.636302 -0.0920698 3.60023
lowerneck -11.4001 -4.76078 -7.81701
upperneck 19.3842 -7.15584 8.47153
head 8.48558 -3.26737 3.34822
rclavicle 6.26172e-015 2.70347e-014
rhumerus -17.4241 -43.9642 -70.7246
rradius 27.2945
rwrist -19.7689
rhand -15.5341 -60.9659
rfingers 7.12502
rthumb 10.6496 -269.324
lclavicle 6.26172e-015 2.70347e-014
lhumerus -20.6889 11.7182 79.3693
lradius 34.1536
lwrist -13.4023
lhand -15.534 24.2988
lfingers 7.12502
lthumb 10.6497 54.009
rfemur -33.9886 -5.13156 14.3595
rtibia 43.6518
rfoot -1.71188 -10.4309
rtoes 7.66958
lfemur -4.50531 -6.39887 -20.0564
ltibia 18.5139
lfoot -12.9673 4.07219
ltoes -7.62254
669
root -35.5075 17.8824 4.86387 555.571 -84.3318 -550.402
lowerback -0.448305 -0.0946402 -0.677257
upperback -0.923537 -0.14704 3.13027
thorax -0.685847 -0.0731799 3.59679
lowerneck -11.1875 -4.63968 -7.73523
upperneck 18.3399 -6.94565 8.68451
head 8.08376 -3.14503 3.42771
rclavicle 8.05078e-015 -6.36111e-015
rhumerus -15.1642 -42.2162 -72.7572
rradius 28.5874
rwrist -22.3113
rhand -15.5766 -61.9262
rfingers 7.12502
rthumb 10.6086 -268.362
lclavicle 8.05078e-015 -6.36111e-015
lhumerus -20.2928 11.1102 79.7014
lradius 34.2966
lwrist -13.3462
lhand -15.4562 24.2581
lfingers 7.12502
lthumb 10.7247 53.9643
rfemur -33.8961 -4.92237 14.0644
rtibia 41.8701
rfoot -1.88408 -10.4152
rtoes 7.33069
lfemur -3.97704 -6.3968 -20.111
ltibia 18.4875
lfoot -13.1641 3.99965
ltoes -8.10898
670
root -35.6413 17.8752 4.83312 556.265 -84.4208 -551.118
lowerback -0.534415 -0.0654955 -0.661729
upperback -1.01775 -0.10775 3.12989
thorax -0.736881 -0.0525196 3.58765
lowerneck -10.9494 -4.51418 -7.65511
upperneck 17.254 -6.73098 8.91344
head 7.66894 -3.02252 3.51181
rclavicle -1.4064e-014 3.26007e-014
rhumerus -13.0015 -40.3846 -74.6197
rradius 29.9865
rwrist -24.8141
rhand -15.5759 -62.8896
rfingers 7.12502
rthumb 10.6092 -267.398
lclavicle -1.4064e-014 3.26007e-014
lhumerus -19.9303 10.5244 80.0138
lradius 34.4397
lwrist -13.2839
lhand -15.3724 24.2128
lfingers 7.12502
lthumb 10.8056 53.9148
rfemur -33.7687 -4.67974 13.7737
rtibia 40.123
rfoot -2.00661 -10.398
rtoes 6.97812
lfemur -3.47121 -6.40337 -20.1486
ltibia 18.5058
lfoot -13.3513 3.93326
ltoes -8.62878
671
root -35.7755 17.8677 4.80086 556.872 -84.5075 -551.746
lowerback -0.617288 -0.0341267 -0.638471
upperback -1.1115 -0.0655991 3.12851
thorax -0.789437 -0.0305445 3.57316
lowerneck -10.6995 -4.38641 -7.57238
upperneck 16.138 -6.51371 9.15091
head 7.24723 -2.90101 3.59693
rclavicle 1.47598e-014 -4.69132e-014
rhumerus -10.9264 -38.4912 -76.3121
rradius 31.4846
rwrist -27.2608
rhand -15.534 -63.8514
rfingers 7.12502
rthumb 10.6497 -266.438
lclavicle 1.47598e-014 -4.69132e-014
lhumerus -19.6005 9.96489 80.3064
lradius 34.5821
lwrist -13.216
lhand -15.2832 24.1654
lfingers 7.12502
lthumb 10.8916 53.8629
rfemur -33.6088 -4.4047 13.4897
rtibia 38.4243
rfoot -2.08843 -10.3887
rtoes 6.64302
lfemur -2.99013 -6.4183 -20.1684
ltibia 18.5723
lfoot -13.5268 3.87098
ltoes -9.17508
672
root -35.9103 17.8598 4.76707 557.365 -84.5941 -552.262
lowerback -0.698412 -0.000102861 -0.603677
upperback -1.20579 -0.0200494 3.1264
thorax -0.843723 -0.00703626 3.55143
lowerneck -10.426 -4.25463 -7.49042
upperneck 14.9872 -6.29139 9.39989
head 6.81494 -2.78005 3.68503
rclavicle 1.10325e-014 -8.74653e-015
rhumerus -8.93873 -36.5545 -77.8327
rradius 33.0855
rwrist -29.6349
rhand -15.4441 -64.7894
rfingers 7.12502
rthumb 10.7364 -265.505
lclavicle 1.10325e-014 -8.74653e-015
lhumerus -19.3059 9.43038 80.5805
lradius 34.7224
lwrist -13.1404
lhand -15.1904 24.112
lfingers 7.12502
lthumb 10.9811 53.8048
rfemur -33.419 -4.09923 13.2171
rtibia 36.7857
rfoot -2.13956 -10.3879
rtoes 6.32301
lfemur -2.53577 -6.44263 -20.1679
ltibia 18.6895
lfoot -13.6874 3.81143
ltoes -9.75544
673
root -36.0458 17.8519 4.73175 557.756 -84.6808 -552.678
lowerback -0.776163 0.0359325 -0.55943
upperback -1.29986 0.0280561 3.12334
thorax -0.89977 0.017582 3.52342
lowerneck -10.1371 -4.11912 -7.40835
upperneck 13.8085 -6.06367 9.65782
head 6.37554 -2.65969 3.77506
rclavicle 1.18774e-014 9.54166e-015
rhumerus -7.02731 -34.5854 -79.1884
rradius 34.7861
rwrist -31.9249
rhand -15.3094 -65.6803
rfingers 7.12502
rthumb 10.8663 -264.621
lclavicle 1.18774e-014 9.54166e-015
lhumerus -19.0458 8.92548 80.8364
lradius 34.8595
lwrist -13.0571
lhand -15.1 24.0505
lfingers 7.12502
lthumb 11.0683 53.7386
rfemur -33.2006 -3.766 12.9567
rtibia 35.2159
rfoot -2.16149 -10.3946
rtoes 6.03642
lfemur -2.10938 -6.47452 -20.1491
ltibia 18.8609
lfoot -13.8319 3.75245
ltoes -10.3649
